<mxfile host="Electron" modified="2025-03-17T12:31:45.192Z" agent="Mozilla/5.0 (Macintosh; Intel Mac OS X 10_15_7) AppleWebKit/537.36 (KHTML, like Gecko) draw.io/22.0.3 Chrome/114.0.5735.289 Electron/25.8.4 Safari/537.36" etag="2ZnVuqLLn1l4oEU8kS10" version="22.0.3" type="device">
  <diagram name="Page-1" id="4gVXXl-HVrOfMPEJolSS">
    <mxGraphModel dx="2556" dy="2189" grid="1" gridSize="10" guides="1" tooltips="1" connect="1" arrows="1" fold="1" page="1" pageScale="1" pageWidth="850" pageHeight="1100" math="0" shadow="0">
      <root>
        <mxCell id="0" />
        <mxCell id="1" parent="0" />
        <mxCell id="wFMLbIRc242RVrdtKK53-1" value="VPC (Region: us-east-1)" style="sketch=0;outlineConnect=0;gradientColor=none;html=1;whiteSpace=wrap;fontSize=12;fontStyle=0;shape=mxgraph.aws4.group;grIcon=mxgraph.aws4.group_vpc;strokeColor=#879196;fillColor=none;verticalAlign=top;align=left;spacingLeft=30;fontColor=#879196;dashed=0;" vertex="1" parent="1">
          <mxGeometry x="30" y="-390" width="980" height="370" as="geometry" />
        </mxCell>
        <mxCell id="wFMLbIRc242RVrdtKK53-5" value="Public Subnet (Availability Zone: us-east-1a)" style="sketch=0;outlineConnect=0;html=1;whiteSpace=wrap;fontSize=12;fontStyle=0;shape=mxgraph.aws4.group;grIcon=mxgraph.aws4.group_subnet;strokeColor=#82b366;fillColor=#d5e8d4;verticalAlign=top;align=left;spacingLeft=30;dashed=0;" vertex="1" parent="1">
          <mxGeometry x="60" y="-270" width="375" height="150" as="geometry" />
        </mxCell>
        <mxCell id="wFMLbIRc242RVrdtKK53-7" value="Private Subnet (Availability Zone: us-east-1b)" style="sketch=0;outlineConnect=0;html=1;whiteSpace=wrap;fontSize=12;fontStyle=0;shape=mxgraph.aws4.group;grIcon=mxgraph.aws4.group_subnet;strokeColor=#6c8ebf;fillColor=#dae8fc;verticalAlign=top;align=left;spacingLeft=30;dashed=0;" vertex="1" parent="1">
          <mxGeometry x="570" y="-370" width="410" height="150" as="geometry" />
        </mxCell>
        <mxCell id="wFMLbIRc242RVrdtKK53-13" value="NAT Gateway" style="sketch=0;outlineConnect=0;fontColor=#232F3E;gradientColor=none;fillColor=#8C4FFF;strokeColor=none;dashed=0;verticalLabelPosition=bottom;verticalAlign=top;align=center;html=1;fontSize=12;fontStyle=0;aspect=fixed;pointerEvents=1;shape=mxgraph.aws4.nat_gateway;" vertex="1" parent="1">
          <mxGeometry x="370" y="-250" width="50" height="50" as="geometry" />
        </mxCell>
        <mxCell id="wFMLbIRc242RVrdtKK53-18" style="edgeStyle=orthogonalEdgeStyle;rounded=0;orthogonalLoop=1;jettySize=auto;html=1;endArrow=classic;endFill=1;startArrow=classic;startFill=1;" edge="1" parent="1" source="wFMLbIRc242RVrdtKK53-8" target="wFMLbIRc242RVrdtKK53-5">
          <mxGeometry relative="1" as="geometry">
            <Array as="points">
              <mxPoint x="248" y="-390" />
            </Array>
          </mxGeometry>
        </mxCell>
        <mxCell id="wFMLbIRc242RVrdtKK53-19" style="edgeStyle=orthogonalEdgeStyle;rounded=0;orthogonalLoop=1;jettySize=auto;html=1;startArrow=classic;startFill=1;endArrow=none;endFill=0;" edge="1" parent="1" source="wFMLbIRc242RVrdtKK53-8" target="wFMLbIRc242RVrdtKK53-13">
          <mxGeometry relative="1" as="geometry">
            <Array as="points">
              <mxPoint x="395" y="-390" />
            </Array>
          </mxGeometry>
        </mxCell>
        <mxCell id="wFMLbIRc242RVrdtKK53-8" value="Internet Gateway" style="sketch=0;outlineConnect=0;fontColor=#232F3E;gradientColor=none;fillColor=#8C4FFF;strokeColor=none;dashed=0;verticalLabelPosition=bottom;verticalAlign=top;align=center;html=1;fontSize=12;fontStyle=0;aspect=fixed;pointerEvents=1;shape=mxgraph.aws4.internet_gateway;" vertex="1" parent="1">
          <mxGeometry x="290" y="-420" width="50" height="50" as="geometry" />
        </mxCell>
        <mxCell id="wFMLbIRc242RVrdtKK53-32" value="Public Route Table" style="shape=table;startSize=30;container=1;collapsible=0;childLayout=tableLayout;fixedRows=1;rowLines=0;fontStyle=0;strokeColor=default;fontSize=16;" vertex="1" parent="1">
          <mxGeometry x="-270" y="-240" width="260" height="90" as="geometry" />
        </mxCell>
        <mxCell id="wFMLbIRc242RVrdtKK53-33" value="" style="shape=tableRow;horizontal=0;startSize=0;swimlaneHead=0;swimlaneBody=0;top=0;left=0;bottom=0;right=0;collapsible=0;dropTarget=0;fillColor=none;points=[[0,0.5],[1,0.5]];portConstraint=eastwest;strokeColor=default;fontSize=16;labelBorderColor=default;labelBackgroundColor=default;" vertex="1" parent="wFMLbIRc242RVrdtKK53-32">
          <mxGeometry y="30" width="260" height="30" as="geometry" />
        </mxCell>
        <mxCell id="wFMLbIRc242RVrdtKK53-34" value="10.0.0.0/16" style="shape=partialRectangle;html=1;whiteSpace=wrap;connectable=0;fillColor=none;top=0;left=0;bottom=0;right=0;overflow=hidden;pointerEvents=1;strokeColor=inherit;fontSize=16;" vertex="1" parent="wFMLbIRc242RVrdtKK53-33">
          <mxGeometry width="101" height="30" as="geometry">
            <mxRectangle width="101" height="30" as="alternateBounds" />
          </mxGeometry>
        </mxCell>
        <mxCell id="wFMLbIRc242RVrdtKK53-35" value="Local" style="shape=partialRectangle;html=1;whiteSpace=wrap;connectable=0;fillColor=none;top=0;left=0;bottom=0;right=0;align=left;spacingLeft=6;overflow=hidden;strokeColor=inherit;fontSize=16;" vertex="1" parent="wFMLbIRc242RVrdtKK53-33">
          <mxGeometry x="101" width="159" height="30" as="geometry">
            <mxRectangle width="159" height="30" as="alternateBounds" />
          </mxGeometry>
        </mxCell>
        <mxCell id="wFMLbIRc242RVrdtKK53-36" value="" style="shape=tableRow;horizontal=0;startSize=0;swimlaneHead=0;swimlaneBody=0;top=0;left=0;bottom=0;right=0;collapsible=0;dropTarget=0;fillColor=none;points=[[0,0.5],[1,0.5]];portConstraint=eastwest;strokeColor=inherit;fontSize=16;" vertex="1" parent="wFMLbIRc242RVrdtKK53-32">
          <mxGeometry y="60" width="260" height="30" as="geometry" />
        </mxCell>
        <mxCell id="wFMLbIRc242RVrdtKK53-37" value="0.0.0.0/0" style="shape=partialRectangle;html=1;whiteSpace=wrap;connectable=0;fillColor=none;top=0;left=0;bottom=0;right=0;overflow=hidden;strokeColor=inherit;fontSize=16;" vertex="1" parent="wFMLbIRc242RVrdtKK53-36">
          <mxGeometry width="101" height="30" as="geometry">
            <mxRectangle width="101" height="30" as="alternateBounds" />
          </mxGeometry>
        </mxCell>
        <mxCell id="wFMLbIRc242RVrdtKK53-38" value="Internet Gateway" style="shape=partialRectangle;html=1;whiteSpace=wrap;connectable=0;fillColor=none;top=0;left=0;bottom=0;right=0;align=left;spacingLeft=6;overflow=hidden;strokeColor=inherit;fontSize=16;" vertex="1" parent="wFMLbIRc242RVrdtKK53-36">
          <mxGeometry x="101" width="159" height="30" as="geometry">
            <mxRectangle width="159" height="30" as="alternateBounds" />
          </mxGeometry>
        </mxCell>
        <mxCell id="wFMLbIRc242RVrdtKK53-42" value="Private Subnet (Availability Zone: us-east-1c)" style="sketch=0;outlineConnect=0;html=1;whiteSpace=wrap;fontSize=12;fontStyle=0;shape=mxgraph.aws4.group;grIcon=mxgraph.aws4.group_subnet;strokeColor=#6c8ebf;fillColor=#dae8fc;verticalAlign=top;align=left;spacingLeft=30;dashed=0;" vertex="1" parent="1">
          <mxGeometry x="570" y="-200" width="410" height="150" as="geometry" />
        </mxCell>
        <mxCell id="wFMLbIRc242RVrdtKK53-51" style="edgeStyle=orthogonalEdgeStyle;rounded=0;orthogonalLoop=1;jettySize=auto;html=1;" edge="1" parent="1" source="wFMLbIRc242RVrdtKK53-43" target="wFMLbIRc242RVrdtKK53-7">
          <mxGeometry relative="1" as="geometry" />
        </mxCell>
        <mxCell id="wFMLbIRc242RVrdtKK53-52" style="edgeStyle=orthogonalEdgeStyle;rounded=0;orthogonalLoop=1;jettySize=auto;html=1;" edge="1" parent="1" source="wFMLbIRc242RVrdtKK53-43" target="wFMLbIRc242RVrdtKK53-42">
          <mxGeometry relative="1" as="geometry" />
        </mxCell>
        <mxCell id="wFMLbIRc242RVrdtKK53-43" value="Private Route Table" style="shape=table;startSize=30;container=1;collapsible=0;childLayout=tableLayout;fixedRows=1;rowLines=0;fontStyle=0;strokeColor=default;fontSize=16;" vertex="1" parent="1">
          <mxGeometry x="1090" y="-250" width="260" height="90" as="geometry" />
        </mxCell>
        <mxCell id="wFMLbIRc242RVrdtKK53-44" value="" style="shape=tableRow;horizontal=0;startSize=0;swimlaneHead=0;swimlaneBody=0;top=0;left=0;bottom=0;right=0;collapsible=0;dropTarget=0;fillColor=none;points=[[0,0.5],[1,0.5]];portConstraint=eastwest;strokeColor=default;fontSize=16;labelBorderColor=default;labelBackgroundColor=default;" vertex="1" parent="wFMLbIRc242RVrdtKK53-43">
          <mxGeometry y="30" width="260" height="30" as="geometry" />
        </mxCell>
        <mxCell id="wFMLbIRc242RVrdtKK53-45" value="10.0.0.0/16" style="shape=partialRectangle;html=1;whiteSpace=wrap;connectable=0;fillColor=none;top=0;left=0;bottom=0;right=0;overflow=hidden;pointerEvents=1;strokeColor=inherit;fontSize=16;" vertex="1" parent="wFMLbIRc242RVrdtKK53-44">
          <mxGeometry width="101" height="30" as="geometry">
            <mxRectangle width="101" height="30" as="alternateBounds" />
          </mxGeometry>
        </mxCell>
        <mxCell id="wFMLbIRc242RVrdtKK53-46" value="Local" style="shape=partialRectangle;html=1;whiteSpace=wrap;connectable=0;fillColor=none;top=0;left=0;bottom=0;right=0;align=left;spacingLeft=6;overflow=hidden;strokeColor=inherit;fontSize=16;" vertex="1" parent="wFMLbIRc242RVrdtKK53-44">
          <mxGeometry x="101" width="159" height="30" as="geometry">
            <mxRectangle width="159" height="30" as="alternateBounds" />
          </mxGeometry>
        </mxCell>
        <mxCell id="wFMLbIRc242RVrdtKK53-47" value="" style="shape=tableRow;horizontal=0;startSize=0;swimlaneHead=0;swimlaneBody=0;top=0;left=0;bottom=0;right=0;collapsible=0;dropTarget=0;fillColor=none;points=[[0,0.5],[1,0.5]];portConstraint=eastwest;strokeColor=inherit;fontSize=16;" vertex="1" parent="wFMLbIRc242RVrdtKK53-43">
          <mxGeometry y="60" width="260" height="30" as="geometry" />
        </mxCell>
        <mxCell id="wFMLbIRc242RVrdtKK53-48" value="0.0.0.0/0" style="shape=partialRectangle;html=1;whiteSpace=wrap;connectable=0;fillColor=none;top=0;left=0;bottom=0;right=0;overflow=hidden;strokeColor=inherit;fontSize=16;" vertex="1" parent="wFMLbIRc242RVrdtKK53-47">
          <mxGeometry width="101" height="30" as="geometry">
            <mxRectangle width="101" height="30" as="alternateBounds" />
          </mxGeometry>
        </mxCell>
        <mxCell id="wFMLbIRc242RVrdtKK53-49" value="NAT Gateway" style="shape=partialRectangle;html=1;whiteSpace=wrap;connectable=0;fillColor=none;top=0;left=0;bottom=0;right=0;align=left;spacingLeft=6;overflow=hidden;strokeColor=inherit;fontSize=16;" vertex="1" parent="wFMLbIRc242RVrdtKK53-47">
          <mxGeometry x="101" width="159" height="30" as="geometry">
            <mxRectangle width="159" height="30" as="alternateBounds" />
          </mxGeometry>
        </mxCell>
        <mxCell id="wFMLbIRc242RVrdtKK53-50" style="edgeStyle=orthogonalEdgeStyle;rounded=0;orthogonalLoop=1;jettySize=auto;html=1;" edge="1" parent="1" source="wFMLbIRc242RVrdtKK53-33" target="wFMLbIRc242RVrdtKK53-5">
          <mxGeometry relative="1" as="geometry" />
        </mxCell>
      </root>
    </mxGraphModel>
  </diagram>
</mxfile>
